:SAMPLES-PER-SECOND 30
:FULLY-SPECIFIED
:DEGREES
888
root  54.1273 39.2143 4.75449 148.139 86.7542 141.372
RightUpLeg  -14.9868 -10.083 -7.88615
RightLeg  -2.08298 10.4371 0.0122253
RightFoot  7.79448 -1.42401 8.74891
RightToes  -5.8209e-011 0 -3.6325e-017
Spine  28.0081 -1.07221 7.32107
Spine1  -8.52375 1.83236 -10.8253
HEad  -36.2469 10.0431 6.9944
LeftShoulder1  -0.0289559 -6.12085 10.0083
LeftArm  -92.4525 -58.6062 11.6543
LeftForeArm  -9.03264 -18.945 -1.33278
LeftHand  -0.122157 2.48523 4.61094
RightShoulder  -0.245573 2.95633 -14.1302
RightArm  41.7576 56.6813 44.8792
RightForeArm  -105.965 54.6791 177.071
RightHand  14.1621 56.3277 16.8493
LeftUpLeg  -15.7289 4.04469 0.791021
LeftLeg  -0.520252 -0.909948 -0.479079
LeftFoot  9.26715 0.0849019 -0.778347
LeftToes  -8.31281e-010 4.41007e-011 3.74621e-011
889
root  54.0233 39.2101 4.8229 152.007 86.7322 144.317
RightUpLeg  -15.7787 -9.49463 -7.41312
RightLeg  -3.00668 9.69091 -0.428889
RightFoot  9.16659 -1.39348 8.03838
RightToes  -5.8209e-011 0 -3.6325e-017
Spine  32.4116 -2.90233 12.3794
Spine1  -16.5617 1.1688 -21.1108
HEad  -34.7538 7.36875 12.3234
LeftShoulder1  -1.08543 -8.62651 19.7894
LeftArm  -76.495 -60.0366 21.6211
LeftForeArm  -41.7451 -5.88305 10.4542
LeftHand  -0.0527773 4.7131 5.21974
RightShoulder  -0.320646 2.01891 -16.3398
RightArm  41.3761 54.2858 36.3599
RightForeArm  -75.8776 46.4615 173.189
RightHand  -2.59977 -16.3545 0.120644
LeftUpLeg  -16.6504 3.9791 0.968822
LeftLeg  -1.13575 -0.928718 -0.516279
LeftFoot  10.0052 0.0926247 -0.817935
LeftToes  -8.31281e-010 4.41007e-011 3.74621e-011
890
root  53.9813 39.1664 4.88481 151.604 86.7953 143.492
RightUpLeg  -16.9799 -9.39744 -7.21304
RightLeg  -1.88528 9.72448 -0.209331
RightFoot  9.69925 -1.31116 7.40856
RightToes  -5.8209e-011 0 -3.6325e-017
Spine  37.2361 -5.19412 16.6036
Spine1  -24.6448 -1.09465 -30.7908
HEad  -32.1479 5.4851 16.8352
LeftShoulder1  -2.08868 -11.7471 25.3835
LeftArm  -72.1249 -57.3207 29.1196
LeftForeArm  -44.7174 -0.444737 6.42692
LeftHand  -0.0384268 5.02785 5.31114
RightShoulder  -0.445057 2.61377 -18.1077
RightArm  30.6637 51.8212 27.4655
RightForeArm  -83.0953 45.7255 173.404
RightHand  0.216359 -12.5339 -4.12208
LeftUpLeg  -17.7246 3.92743 1.07542
LeftLeg  -0.120207 -0.807594 -0.606858
LeftFoot  10.1611 0.0117639 -0.388806
LeftToes  -8.31281e-010 4.41007e-011 3.74621e-011
891
root  53.9815 39.1253 4.94782 149.633 86.8821 142.163
RightUpLeg  -17.2204 -9.39006 -7.14306
RightLeg  -0.153863 10.092 0.0604868
RightFoot  9.49456 -1.17134 6.72031
RightToes  -5.8209e-011 0 -3.6325e-017
Spine  38.1997 -5.31033 16.503
Spine1  -25.0643 -1.29932 -31.5694
HEad  -31.4447 4.85599 18.4499
LeftShoulder1  -2.20094 -12.7378 25.0945
LeftArm  -76.0741 -56.3 37.2771
LeftForeArm  -34.9629 0.93855 5.72988
LeftHand  -0.0276101 5.29653 5.68285
RightShoulder  -0.522504 2.59012 -19.5848
RightArm  22.0536 52.2328 18.2717
RightForeArm  -86.3822 44.2756 173.853
RightHand  0.369229 -15.5502 -5.4016
LeftUpLeg  -17.7213 4.09748 1.20569
LeftLeg  1.22357 -0.836636 -0.650242
LeftFoot  9.88006 -0.00420998 -0.300566
LeftToes  -8.31281e-010 4.41007e-011 3.74621e-011
892
root  53.9598 39.116 5.00796 154.525 86.4855 147.932
RightUpLeg  -16.7023 -9.17521 -7.10485
RightLeg  0.81999 9.59254 -0.0499231
RightFoot  9.39477 -1.11662 6.45054
RightToes  -5.8209e-011 0 -3.6325e-017
Spine  37.704 -5.12631 15.1807
Spine1  -23.1841 -0.981347 -28.9573
HEad  -30.3382 5.74593 17.303
LeftShoulder1  -1.90688 -12.2792 23.441
LeftArm  -75.9145 -55.3656 39.9202
LeftForeArm  -35.3609 -1.05853 4.24653
LeftHand  -0.0252258 5.33386 5.92119
RightShoulder  -0.589031 2.88516 -20.292
RightArm  16.6447 53.1754 11.7896
RightForeArm  -92.0599 42.1273 174.49
RightHand  -0.279575 -15.9292 2.13508
LeftUpLeg  -17.3873 4.11569 1.21593
LeftLeg  2.15048 -1.37977 -0.581219
LeftFoot  10.0893 -0.139231 0.410127
LeftToes  -8.31281e-010 4.41007e-011 3.74621e-011
